#!OML:ASF F:\VICON\USERDATA\INSTALL\rory3\rory3.ASF
:FULLY-SPECIFIED
:DEGREES
2188
root -0.766598 17.9069 0.306417 -3.74863 -33.6644 0.904781
lowerback 2.28493 -1.0801 -1.12301
upperback 0.831241 -1.46018 1.98288
thorax -0.348703 -0.73759 2.69991
lowerneck -20.9264 -6.27888 -11.6389
upperneck 16.2418 -7.82472 12.6182
head 9.56794 -3.05689 5.18473
rclavicle -2.23136e-014 -7.15625e-015
rhumerus 1.1995 25.6135 -90.5409
rradius 89.0251
rwrist 14.7847
rhand -41.7366 3.29322
rfingers 7.12502
rthumb -14.6414 -26.1699
lclavicle -2.23136e-014 -7.15625e-015
lhumerus 2.34404 -2.9002 93.2457
lradius 79.4347
lwrist 61.2456
lhand -16.6973 43.6728
lfingers 7.12502
lthumb 9.52738 73.4374
rfemur -6.5699 1.95633 18.4279
rtibia 29.5607
rfoot -14.6445 -1.43282
rtoes 4.56525
lfemur -3.81148 -7.45095 -6.29926
ltibia 29.9632
lfoot 1.93671 8.43204
ltoes -20.5557
2189
root -0.784816 17.9124 0.24534 -3.7067 -33.3838 1.16597
lowerback 2.76212 -1.18005 -1.37212
upperback 0.850392 -1.60096 2.15094
thorax -0.576547 -0.806627 3.02818
lowerneck -21.279 -6.27704 -11.6696
upperneck 15.8889 -7.71775 12.5482
head 9.49134 -3.00549 5.17094
rclavicle 3.55778e-014 1.11319e-014
rhumerus 0.79729 27.6542 -91.1018
rradius 87.183
rwrist 14.2859
rhand -41.2544 3.45978
rfingers 7.12502
rthumb -14.1768 -26.0365
lclavicle 3.55778e-014 1.11319e-014
lhumerus 2.37359 -4.36251 94.6289
lradius 78.3781
lwrist 62.369
lhand -15.9809 44.34
lfingers 7.12502
lthumb 10.2186 74.0718
rfemur -7.02482 1.7945 18.3549
rtibia 29.7951
rfoot -14.5952 -1.63168
rtoes 4.23911
lfemur -4.25466 -7.53768 -6.43978
ltibia 29.8682
lfoot 2.43497 8.66533
ltoes -19.9035
2190
root -0.80337 17.9204 0.187201 -3.66353 -33.1714 1.52053
lowerback 3.13762 -1.22441 -1.75682
upperback 0.857992 -1.67276 2.35513
thorax -0.756953 -0.840969 3.46788
lowerneck -21.5595 -6.31154 -11.6246
upperneck 15.4534 -7.6421 12.2863
head 9.36458 -2.98678 5.06897
rclavicle -6.56673e-014 1.66979e-014
rhumerus 0.442949 29.5465 -91.5528
rradius 85.2204
rwrist 13.852
rhand -40.6169 2.83505
rfingers 7.12502
rthumb -13.5624 -26.7032
lclavicle -6.56673e-014 1.66979e-014
lhumerus 2.41843 -5.85574 96.0188
lradius 77.2316
lwrist 63.3387
lhand -15.4829 44.888
lfingers 7.12502
lthumb 10.699 74.5956
rfemur -7.55636 1.66701 18.1879
rtibia 30.0899
rfoot -14.7358 -1.73926
rtoes 5.50596
lfemur -4.67543 -7.46928 -6.66281
ltibia 29.6751
lfoot 2.91875 8.79437
ltoes -19.6249
2191
root -0.822172 17.928 0.129054 -3.57538 -33.0539 1.87966
lowerback 3.34483 -1.24344 -2.03241
upperback 0.939791 -1.70931 2.47544
thorax -0.774236 -0.860542 3.7536
lowerneck -22.0492 -6.35049 -11.5613
upperneck 15.1449 -7.60206 12.1651
head 9.32976 -2.96136 5.01097
rclavicle -3.40791e-014 1.51076e-014
rhumerus 0.4192 31.4065 -91.9147
rradius 83.1089
rwrist 13.3973
rhand -39.881 1.86983
rfingers 7.12502
rthumb -12.8531 -27.7144
lclavicle -3.40791e-014 1.51076e-014
lhumerus 2.60934 -7.47436 97.1073
lradius 76.0444
lwrist 64.1264
lhand -14.5569 45.5972
lfingers 7.12502
lthumb 11.5921 75.2566
rfemur -8.13486 1.65643 18.0278
rtibia 30.3997
rfoot -15.0314 -1.78587
rtoes 7.96229
lfemur -5.02794 -7.3998 -6.89122
ltibia 29.3855
lfoot 3.31077 9.07611
ltoes -19.1623
2192
root -0.837536 17.9336 0.0669358 -3.40045 -32.7927 2.21778
lowerback 3.52916 -1.34943 -2.08208
upperback 0.999556 -1.85531 2.41657
thorax -0.804633 -0.933851 3.73025
lowerneck -22.6201 -6.33843 -11.3642
upperneck 14.9558 -7.58198 12.2292
head 9.35693 -2.91524 4.9968
rclavicle 1.17805e-013 -7.95139e-015
rhumerus 0.407687 33.0431 -92.5467
rradius 80.8233
rwrist 13.1282
rhand -39.0094 1.80513
rfingers 7.12502
rthumb -12.0128 -27.8301
lclavicle 1.17805e-013 -7.95139e-015
lhumerus 2.80003 -9.06673 97.8505
lradius 74.9101
lwrist 64.6375
lhand -13.6396 46.4737
lfingers 7.12502
lthumb 12.4766 76.0812
rfemur -8.77066 1.6973 17.892
rtibia 30.67
rfoot -15.2719 -2.04992
rtoes 9.71041
lfemur -5.48114 -7.43576 -7.06914
ltibia 29.0168
lfoot 3.57327 9.42659
ltoes -17.8173
2193
root -0.851786 17.9418 0.0078399 -3.09536 -32.4553 2.49446
lowerback 3.66282 -1.48369 -2.08367
upperback 0.975183 -2.03562 2.39362
thorax -0.8908 -1.0222 3.7189
lowerneck -23.0099 -6.31967 -11.2941
upperneck 14.7209 -7.5604 12.4382
head 9.34878 -2.86774 5.05709
rclavicle 8.93537e-014 7.95139e-015
rhumerus 0.185173 34.1216 -93.5331
rradius 78.1138
rwrist 13.3694
rhand -37.9715 2.33029
rfingers 7.12502
rthumb -11.0118 -27.3609
lclavicle 8.93537e-014 7.95139e-015
lhumerus 2.88738 -10.5194 98.6666
lradius 73.7144
lwrist 64.8125
lhand -13.4763 47.1588
lfingers 7.12502
lthumb 12.634 76.7567
rfemur -9.48595 1.58475 17.7933
rtibia 30.8747
rfoot -15.4231 -2.41182
rtoes 9.58657
lfemur -6.02708 -7.54042 -7.19876
ltibia 28.6039
lfoot 3.77262 9.7717
ltoes -16.4935
2194
root -0.867685 17.9532 -0.0476175 -2.69649 -32.4437 2.70888
lowerback 3.72303 -1.46277 -2.13731
upperback 0.90782 -2.00883 2.47581
thorax -0.990955 -1.0062 3.83661
lowerneck -23.132 -6.33713 -11.4314
upperneck 14.3371 -7.56143 12.7739
head 9.26051 -2.84049 5.19273
rclavicle 4.4329e-014 1.11319e-014
rhumerus -0.0725605 34.9949 -94.3559
rradius 75.2974
rwrist 13.784
rhand -37.3322 2.5824
rfingers 7.12502
rthumb -10.3951 -27.1406
lclavicle 4.4329e-014 1.11319e-014
lhumerus 2.79724 -11.8678 99.6642
lradius 72.4702
lwrist 64.5367
lhand -13.6634 47.3922
lfingers 7.12502
lthumb 12.4537 77.0012
rfemur -10.3139 1.60253 17.7558
rtibia 31.0513
rfoot -15.3077 -2.66858
rtoes 8.52808
lfemur -6.49363 -7.39848 -7.30831
ltibia 28.1388
lfoot 4.14333 10.2068
ltoes -16.0402
2195
root -0.883067 17.9656 -0.10146 -2.26693 -32.6129 2.81476
lowerback 3.75233 -1.39038 -2.10052
upperback 0.903385 -1.91019 2.59648
thorax -1.01704 -0.956728 3.93798
lowerneck -23.2997 -6.39298 -11.4511
upperneck 13.884 -7.58996 12.8771
head 9.14332 -2.84257 5.21832
rclavicle 4.95471e-014 -2.54444e-014
rhumerus -0.270657 35.7847 -94.8641
rradius 72.7906
rwrist 14.613
rhand -38.542 0.693392
rfingers 7.12502
rthumb -11.562 -28.9677
lclavicle 4.95471e-014 -2.54444e-014
lhumerus 3.07397 -13.5735 100.098
lradius 71.106
lwrist 64.8794
lhand -16.8794 48.4451
lfingers 7.12502
lthumb 9.35174 78.2176
rfemur -11.0996 1.67125 17.8187
rtibia 31.1931
rfoot -14.9588 -2.79937
rtoes 8.00623
lfemur -6.82945 -7.08462 -7.34843
ltibia 27.6252
lfoot 4.53865 10.8095
ltoes -14.9354
2196
root -0.895213 17.9738 -0.16078 -1.83415 -32.4406 3.02638
lowerback 3.7249 -1.43616 -2.16128
upperback 0.931506 -1.97297 2.69137
thorax -0.962021 -0.98977 4.07187
lowerneck -23.6557 -6.44737 -11.3236
upperneck 13.5001 -7.61143 12.7915
head 9.06534 -2.84553 5.1531
rclavicle 9.38264e-014 -1.90833e-014
rhumerus -0.254684 35.9 -95.3206
rradius 70.3029
rwrist 15.4081
rhand -42.4625 -3.24733
rfingers 7.12502
rthumb -15.3407 -32.6583
lclavicle 9.38264e-014 -1.90833e-014
lhumerus 3.58912 -13.3974 100.87
lradius 68.2783
lwrist 60.3258
lhand -15.0795 51.0245
lfingers 7.12502
lthumb 11.0881 80.7116
rfemur -11.8972 1.4986 17.7672
rtibia 31.3128
rfoot -14.7847 -2.98458
rtoes 7.9034
lfemur -7.35642 -6.93942 -7.45433
ltibia 27.0724
lfoot 4.84556 11.2848
ltoes -13.6051
